<svg width="230" height="231" viewBox="0 0 230 231" fill="none" xmlns="http://www.w3.org/2000/svg">
<path d="M111 0H130L145 3L165 11L177 18L188 26L200 37L210 50L216 60L223 74L229 97L230 105V126L226 146L222 158L214 174L207 185L196 197L188 205L174 215L155 224L142 228L127 231H102L96 230L102 222L112 211L122 195L127 184L131 169L132 164V150L128 133L121 117L107 93L97 76L92 65L89 54V41L93 26L101 12L110 1L111 0Z" fill="#9B2875"/>
<circle cx="124" cy="11" r="6" fill="white"/>
<circle cx="112" cy="28" r="7" fill="white"/>
<circle cx="112" cy="56" r="12" fill="white"/>
<circle cx="132" cy="89" r="16" fill="white"/>
<circle cx="154" cy="123" r="15" fill="white"/>
<circle cx="157" cy="158" r="12" fill="white"/>
<circle cx="149" cy="186" r="8" fill="white"/>
<circle cx="136" cy="207" r="6" fill="white"/>
<circle cx="120" cy="219" r="4" fill="white"/>
<path d="M95 3H101L94 11.5L92 15L85 29L82 38L81 48.5L82 59L86 73L95 93L104 110L112 130L116 147V166L112 184L107 196L102 205L95 216L85 229L75 226L66 222L51 214L38 203L33 198L23 187L19 182L13 171L7 158L2 139L0 127V107L3 89L8 74L16 58L23 47L25 44L26.5 42L29 39L34 33.5L39.5 28L47.5 22L56.5 16.5L73 9L85 5L95 3Z" fill="#7DC342"/>
</svg>
