<svg width="55" height="55" viewBox="0 0 55 55" fill="none" xmlns="http://www.w3.org/2000/svg">
<path d="M27.3421 15.2469C30.2149 15.2469 32.4117 13.0501 32.4117 10.1773C32.4117 7.3045 30.2149 5.10767 27.3421 5.10767C24.4693 5.10767 22.2725 7.3045 22.2725 10.1773C22.2725 13.0501 24.4693 15.2469 27.3421 15.2469Z" fill="#9B2875"/>
<path d="M50.493 19.1337L38.6639 8.14955C38.1569 7.64259 37.481 7.64259 36.805 7.81158C36.1291 8.14955 35.7911 8.8255 35.7911 9.50145C35.7911 9.67044 35.7911 10.0084 35.7911 10.1774C35.7911 14.909 32.0734 18.6268 27.3417 18.6268C22.6101 18.6268 18.8924 14.909 18.8924 10.1774C18.8924 10.0084 18.8924 9.67044 18.8924 9.50145C18.8924 8.8255 18.5544 8.14955 17.8784 7.81158C17.2025 7.4736 16.5265 7.64259 16.0196 8.14955L4.19045 19.1337C3.68349 19.4717 3.5145 20.1477 3.68349 20.8236C3.85247 21.4996 4.19045 21.8375 4.8664 22.0065L19.9063 26.7382C17.3715 27.5831 15.5126 29.104 15.5126 31.3008C15.5126 32.1458 15.8506 33.4977 17.3715 34.6806C18.0474 35.1875 19.2303 35.0186 19.7373 34.3426C20.2443 33.6667 20.0753 32.4837 19.3993 31.9768C18.8924 31.6388 18.8924 31.3008 18.8924 31.3008C18.8924 30.7939 21.2582 29.104 25.6519 28.766V33.8356C21.7651 34.3426 18.8924 36.2015 18.8924 38.7363C18.8924 40.4262 20.0753 41.7781 21.9341 42.792C22.1031 42.961 22.4411 42.961 22.6101 42.961C23.286 42.961 23.793 42.623 24.131 41.947C24.4689 41.1021 24.131 40.0882 23.286 39.7502C22.6101 39.4122 22.2721 39.0743 22.2721 38.9053C22.2721 38.5673 23.455 37.7224 25.6519 37.3844V45.6648C25.6519 46.6787 26.3278 47.3546 27.3417 47.3546C28.3557 47.3546 29.0316 46.6787 29.0316 45.6648V44.3129C30.0455 44.6508 30.7215 45.3268 30.7215 45.6648C30.7215 46.3407 29.3696 47.3546 27.3417 47.3546C25.3139 47.3546 23.962 46.3407 23.962 45.6648C23.962 44.6508 23.286 43.9749 22.2721 43.9749C21.2582 43.9749 20.5822 44.6508 20.5822 45.6648C20.5822 48.5376 23.624 50.7344 27.3417 50.7344C31.0595 50.7344 34.1012 48.5376 34.1012 45.6648C34.1012 43.2989 31.9044 41.2711 29.0316 40.7641V37.2154C34.2702 36.8774 39.1709 34.8496 39.1709 31.3008C39.1709 29.104 37.312 27.5831 34.7772 26.5692L49.8171 21.8375C50.324 21.6685 50.831 21.1616 51 20.6546C51.169 20.1477 50.831 19.4717 50.493 19.1337ZM35.7911 31.3008C35.7911 31.8078 33.4253 33.4977 29.0316 33.8356V28.766C33.4253 29.104 35.7911 30.7939 35.7911 31.3008Z" fill="#9B2875"/>
</svg>
