<svg width="53" height="53" viewBox="0 0 53 53" fill="none" xmlns="http://www.w3.org/2000/svg">
<path d="M50.7248 3.05542C51.8491 3.36206 52.6668 4.28198 52.6668 5.40633C52.6668 31.6752 31.4064 52.8334 5.23975 52.8334C4.01318 52.8334 3.09326 52.1179 2.78662 50.9936L0.333496 40.3634C0.129069 39.239 0.640137 38.0125 1.76449 37.5014L13.2124 32.5951C14.2345 32.1863 15.3589 32.4929 16.0744 33.3106L21.1851 39.5457C29.1577 35.7638 35.5972 29.2221 39.2769 21.4539L33.0418 16.3432C32.2241 15.6277 31.9175 14.5033 32.3263 13.4812L37.2326 2.03328C37.7437 0.908933 38.9702 0.295652 40.0946 0.602293L50.7248 3.05542Z" fill="#9B2875"/>
</svg>
