<svg width="69" height="36" viewBox="0 0 69 36" fill="none" xmlns="http://www.w3.org/2000/svg">
<path d="M41.6347 1.32743C41.5075 0.582694 40.8622 0.0378418 40.1061 0.0378418H5.24442C4.23973 0.0378418 3.42622 0.852281 3.42622 1.85512C3.42622 2.8598 4.23973 3.67332 5.24442 3.67332H13.7285C14.7332 3.67332 15.5467 4.48789 15.5467 5.49165C15.5467 6.49541 14.7332 7.30985 13.7285 7.30985H2.38509C1.38134 7.30985 0.566895 8.12429 0.566895 9.12805C0.566895 10.1318 1.38134 10.9452 2.38509 10.9452H17.8467C18.7338 10.9452 19.4536 11.666 19.4536 12.5532C19.4536 13.4404 18.7338 14.1602 17.8467 14.1602H9.63215C8.62747 14.1602 7.81395 14.9748 7.81395 15.9785C7.81395 16.9821 8.62747 17.7967 9.63215 17.7967H15.6863C16.5742 17.7967 17.2941 18.5165 17.2941 19.4037C17.2941 20.2907 16.5742 21.0106 15.6863 21.0106H7.32837C6.32369 21.0106 5.51017 21.8251 5.51017 22.8288C5.51017 23.8326 6.32369 24.647 7.32837 24.647H18.8161L19.5406 28.7453H23.7019C23.4572 29.3399 23.3176 29.989 23.3176 30.6725C23.3176 33.4773 25.5908 35.7506 28.3957 35.7506C31.1994 35.7506 33.4727 33.4773 33.4727 30.6725C33.4727 29.989 33.3332 29.3399 33.0884 28.7453H46.2958L41.6347 1.32743ZM30.5809 30.6724C30.5809 31.8798 29.603 32.8577 28.3956 32.8577C27.1873 32.8577 26.2093 31.8798 26.2093 30.6724C26.2093 29.8322 26.6881 29.1114 27.3832 28.7451H29.407C30.1019 29.1114 30.5809 29.8321 30.5809 30.6724Z" fill="#9B2875"/>
<path d="M68.1085 25.561L66.0227 15.2711L58.4066 3.55298H44.5396L48.8347 28.7452H53.907C53.6633 29.3398 53.5236 29.989 53.5236 30.6724C53.5236 33.4772 55.7969 35.7505 58.6006 35.7505C61.4056 35.7505 63.6787 33.4772 63.6787 30.6724C63.6787 29.989 63.5392 29.3398 63.2945 28.7452H65.5047C66.302 28.7452 67.0571 28.3877 67.5618 27.7701C68.0656 27.1537 68.2672 26.342 68.1085 25.561ZM52.3889 8.24106H55.8629L60.373 15.1784H53.5723L52.3889 8.24106ZM60.7869 30.6724C60.7869 31.8799 59.809 32.8578 58.6006 32.8578C57.3942 32.8578 56.4154 31.8799 56.4154 30.6724C56.4154 29.8322 56.8953 29.1114 57.5893 28.7452H59.6131C60.3081 29.1114 60.7869 29.8321 60.7869 30.6724Z" fill="#9B2875"/>
</svg>
