<svg width="60" height="47" viewBox="0 0 60 47" fill="none" xmlns="http://www.w3.org/2000/svg">
<path d="M29.0472 12.5163C29.2516 12.3118 29.5583 12.2096 29.8649 12.2096C30.0693 12.2096 30.376 12.3118 30.5804 12.5163L49.4899 27.9505V44.7135C49.4899 45.6335 48.6722 46.349 47.8545 46.349H36.3044C35.4867 46.349 34.6689 45.6335 34.6689 44.7135V34.901C34.6689 34.0833 33.9535 33.2656 33.0335 33.2656H26.4919C25.6742 33.2656 24.8564 34.0833 24.8564 34.901V44.7135C24.8564 45.6335 24.141 46.349 23.3232 46.349H11.8753C10.9554 46.349 10.2399 45.6335 10.2399 44.7135V28.0527L29.0472 12.5163ZM58.7913 23.0443C59.098 23.2487 59.3024 23.6576 59.3024 23.9642C59.3024 24.2708 59.2002 24.5775 58.9958 24.7819L56.3382 27.9505C56.1338 28.2572 55.8272 28.3594 55.4183 28.3594C55.1117 28.3594 54.805 28.2572 54.6006 28.0527L30.5804 8.32552C30.376 8.12109 30.0693 8.01888 29.8649 8.01888C29.5583 8.01888 29.2516 8.12109 29.0472 8.32552L5.02702 28.0527C4.82259 28.2572 4.51595 28.3594 4.20931 28.3594C3.80046 28.3594 3.49381 28.2572 3.28939 27.9505L0.631835 24.7819C0.529622 24.5775 0.325195 24.2708 0.325195 23.9642C0.325195 23.6576 0.529622 23.2487 0.836262 23.0443L26.6963 1.68164C27.514 1.06836 28.6383 0.659503 29.8649 0.659503C30.9893 0.659503 32.1136 1.06836 32.9313 1.68164L42.1305 9.24544V1.88607C42.1305 1.17057 42.6416 0.659503 43.3571 0.659503H49.0811C49.6943 0.659503 50.3076 1.17057 50.3076 1.88607V15.9915L58.7913 23.0443Z" fill="#9B2875"/>
</svg>
